# xmcd
#
# Track frame offsets: 
#        187
#        13462
#        22237
#        32437
#        44025
#        58687
#        69600
#        82262
#        93937
#        104237
#        115725
#        127500
#        143662
#        154050
#
# Disc length: 2184 seconds
#
# Revision: 0
# Processed by: cddbd v1.5.1PL0 Copyright (c) Steve Scherf et al.
# Submitted via: ExactAudioCopy v0.95b2
#
DISCID=c408860e
DTITLE=Various Artist - Troubles Troubles-New Orleans Blues
DYEAR=1900
DGENRE=Blues
TTITLE0=Eddie Lang - Troubles Troubles
TTITLE1=Eddie Lang - She's Mine All Mine
TTITLE2=Eddie Lang - I'm On My Way
TTITLE3=Eddie Lang - Easy Rockin'
TTITLE4=Eddie Lang - You Sure Is Fine
TTITLE5=Edgar Blanchard and The Gondoliers - Bopsody In Blues
TTITLE6=Edgar Blanchard and The Gondoliers - Blues Cha-Cha
TTITLE7=Jerry Morris and Clarence "BonTon" Garlow Orchestra - Lost Lov
TTITLE7=er
TTITLE8=Jerry Morris and Clarence "BonTon" Garlow Orchestra - Bony Mar
TTITLE8=one and Friends
TTITLE9=Jerry Morris and Clarence "BonTon" Garlow Orchestra - Cool Dow
TTITLE9=n Baby
TTITLE10=Jerry Morris and Clarence "BonTon" Garlow Orchestra - Amen
TTITLE11=Jimmy Rivers Combo - The Blue Eagle Part 1
TTITLE12=Mercy Baby - Pleading'
TTITLE13=Mercy Baby - Country Baby
EXTD=
EXTT0=
EXTT1=
EXTT2=
EXTT3=
EXTT4=
EXTT5=
EXTT6=
EXTT7=
EXTT8=
EXTT9=
EXTT10=
EXTT11=
EXTT12=
EXTT13=
PLAYORDER=
